<svg width="26" height="26" viewBox="0 0 26 26" fill="none" xmlns="http://www.w3.org/2000/svg">
<path d="M13 14.846C15.549 14.846 17.6154 12.7796 17.6154 10.2306C17.6154 7.68161 15.549 5.61523 13 5.61523C10.451 5.61523 8.38464 7.68161 8.38464 10.2306C8.38464 12.7796 10.451 14.846 13 14.846Z" stroke="white" stroke-width="1.84615" stroke-linecap="round" stroke-linejoin="round"/>
<path d="M5.11694 22.0464C5.94077 20.6941 7.09862 19.5765 8.47917 18.801C9.85972 18.0255 11.4166 17.6182 13 17.6182C14.5835 17.6182 16.1403 18.0255 17.5209 18.801C18.9014 19.5765 20.0593 20.6941 20.8831 22.0464" stroke="white" stroke-width="1.84615" stroke-linecap="round" stroke-linejoin="round"/>
<path d="M13 25C19.6274 25 25 19.6274 25 13C25 6.37258 19.6274 1 13 1C6.37258 1 1 6.37258 1 13C1 19.6274 6.37258 25 13 25Z" stroke="white" stroke-width="1.84615" stroke-linecap="round" stroke-linejoin="round"/>
</svg>
