<svg width="21" height="21" viewBox="0 0 21 21" fill="none" xmlns="http://www.w3.org/2000/svg">
<path d="M17.1582 3H15.2832V2.375C15.2832 2.20924 15.2174 2.05027 15.1001 1.93306C14.9829 1.81585 14.824 1.75 14.6582 1.75C14.4924 1.75 14.3335 1.81585 14.2163 1.93306C14.0991 2.05027 14.0332 2.20924 14.0332 2.375V3H7.7832V2.375C7.7832 2.20924 7.71735 2.05027 7.60014 1.93306C7.48293 1.81585 7.32396 1.75 7.1582 1.75C6.99244 1.75 6.83347 1.81585 6.71626 1.93306C6.59905 2.05027 6.5332 2.20924 6.5332 2.375V3H4.6582C4.32668 3 4.00874 3.1317 3.77432 3.36612C3.5399 3.60054 3.4082 3.91848 3.4082 4.25V16.75C3.4082 17.0815 3.5399 17.3995 3.77432 17.6339C4.00874 17.8683 4.32668 18 4.6582 18H17.1582C17.4897 18 17.8077 17.8683 18.0421 17.6339C18.2765 17.3995 18.4082 17.0815 18.4082 16.75V4.25C18.4082 3.91848 18.2765 3.60054 18.0421 3.36612C17.8077 3.1317 17.4897 3 17.1582 3ZM6.5332 4.25V4.875C6.5332 5.04076 6.59905 5.19973 6.71626 5.31694C6.83347 5.43415 6.99244 5.5 7.1582 5.5C7.32396 5.5 7.48293 5.43415 7.60014 5.31694C7.71735 5.19973 7.7832 5.04076 7.7832 4.875V4.25H14.0332V4.875C14.0332 5.04076 14.0991 5.19973 14.2163 5.31694C14.3335 5.43415 14.4924 5.5 14.6582 5.5C14.824 5.5 14.9829 5.43415 15.1001 5.31694C15.2174 5.19973 15.2832 5.04076 15.2832 4.875V4.25H17.1582V6.75H4.6582V4.25H6.5332ZM17.1582 16.75H4.6582V8H17.1582V16.75Z" fill="#999999"/>
</svg>
