<svg width="16" height="16" viewBox="0 0 16 16" fill="none" xmlns="http://www.w3.org/2000/svg">
<g clip-path="url(#clip0_2369_9984)">
<path d="M10.8572 12.0008V14.2866C10.8572 14.5897 10.7368 14.8803 10.5225 15.0947C10.3082 15.309 10.0175 15.4294 9.71439 15.4294H1.71439C1.41129 15.4294 1.1206 15.309 0.906268 15.0947C0.691941 14.8803 0.571533 14.5897 0.571533 14.2866V1.71512C0.571533 1.41202 0.691941 1.12133 0.906268 0.907001C1.1206 0.692673 1.41129 0.572266 1.71439 0.572266H9.71439C10.0175 0.572266 10.3082 0.692673 10.5225 0.907001C10.7368 1.12133 10.8572 1.41202 10.8572 1.71512V4.00084" stroke="white" stroke-linecap="round" stroke-linejoin="round"/>
<path d="M7.42871 8H15.4287" stroke="white" stroke-linecap="round" stroke-linejoin="round"/>
<path d="M13.1431 5.71484L15.4288 8.00056L13.1431 10.2863" stroke="white" stroke-linecap="round" stroke-linejoin="round"/>
</g>
<defs>
<clipPath id="clip0_2369_9984">
<rect width="16" height="16" fill="white"/>
</clipPath>
</defs>
</svg>
