<svg width="20" height="20" viewBox="0 0 20 20" fill="none" xmlns="http://www.w3.org/2000/svg">
<g clip-path="url(#clip0_2369_9857)">
<path d="M8.125 16.8755V11.8755H11.875V16.8755H16.875V9.37549C16.8751 9.29339 16.859 9.21208 16.8276 9.13621C16.7962 9.06034 16.7502 8.99139 16.6922 8.9333L10.4422 2.6833C10.3841 2.62519 10.3152 2.57909 10.2393 2.54764C10.1635 2.51619 10.0821 2.5 10 2.5C9.91787 2.5 9.83654 2.51619 9.76066 2.54764C9.68479 2.57909 9.61586 2.62519 9.55781 2.6833L3.30781 8.9333C3.24979 8.99139 3.20378 9.06034 3.17241 9.13621C3.14105 9.21208 3.12494 9.29339 3.125 9.37549V16.8755H8.125Z" stroke="#B5AEFF" stroke-width="1.5" stroke-linecap="round" stroke-linejoin="round"/>
</g>
<defs>
<clipPath id="clip0_2369_9857">
<rect width="20" height="20" fill="white"/>
</clipPath>
</defs>
</svg>
