<svg width="20" height="20" viewBox="0 0 20 20" fill="none" xmlns="http://www.w3.org/2000/svg">
<g clip-path="url(#clip0_3101_25827)">
<path d="M7.27891 9.59609C7.01023 8.92756 6.87309 8.21346 6.875 7.49297C6.875 4.4789 9.30313 1.97422 12.3156 1.87812C13.0852 1.85247 13.8518 1.98509 14.568 2.26776C15.2843 2.55043 15.9348 2.97714 16.4794 3.52145C17.024 4.06577 17.4511 4.7161 17.7342 5.43217C18.0172 6.14824 18.1502 6.9148 18.125 7.68437C18.0258 10.6969 15.5211 13.125 12.507 13.125C11.7865 13.1269 11.0724 12.9898 10.4039 12.7211L9.375 13.75H7.5V15.625H5.625V17.5H3.125C2.95924 17.5 2.80027 17.4342 2.68306 17.3169C2.56585 17.1997 2.5 17.0408 2.5 16.875V14.6336C2.50008 14.4681 2.56582 14.3093 2.68281 14.1922L7.27891 9.59609Z" stroke="#DCDCDC" stroke-linecap="round" stroke-linejoin="round"/>
<path d="M14.0625 5.03125C14.563 5.03125 14.9688 5.43699 14.9688 5.9375C14.9688 6.43801 14.563 6.84375 14.0625 6.84375C13.562 6.84375 13.1562 6.43801 13.1562 5.9375C13.1562 5.43699 13.562 5.03125 14.0625 5.03125Z" fill="#DCDCDC" stroke="#DCDCDC" stroke-width="0.0625"/>
</g>
<defs>
<clipPath id="clip0_3101_25827">
<rect width="20" height="20" fill="white"/>
</clipPath>
</defs>
</svg>
