<svg width="20" height="20" viewBox="0 0 20 20" fill="none" xmlns="http://www.w3.org/2000/svg">
<g clip-path="url(#clip0_2369_9958)">
<path d="M10 13.1719C10.4919 13.1719 10.8906 13.5706 10.8906 14.0625C10.8906 14.5544 10.4919 14.9531 10 14.9531C9.50812 14.9531 9.10938 14.5544 9.10938 14.0625C9.10938 13.5706 9.50812 13.1719 10 13.1719Z" fill="#B5AEFF" stroke="#B5AEFF" stroke-width="0.09375"/>
<path d="M10 11.25V10.625C11.3805 10.625 12.5 9.64531 12.5 8.4375C12.5 7.22969 11.3805 6.25 10 6.25C8.61953 6.25 7.5 7.22969 7.5 8.4375V8.75" stroke="#B5AEFF" stroke-width="1.5" stroke-linecap="round" stroke-linejoin="round"/>
<path d="M10 17.5C14.1421 17.5 17.5 14.1421 17.5 10C17.5 5.85786 14.1421 2.5 10 2.5C5.85786 2.5 2.5 5.85786 2.5 10C2.5 14.1421 5.85786 17.5 10 17.5Z" stroke="#B5AEFF" stroke-width="1.5" stroke-linecap="round" stroke-linejoin="round"/>
</g>
<defs>
<clipPath id="clip0_2369_9958">
<rect width="20" height="20" fill="white"/>
</clipPath>
</defs>
</svg>
