<svg width="20" height="20" viewBox="0 0 20 20" fill="none" xmlns="http://www.w3.org/2000/svg">
<g clip-path="url(#clip0_3101_25829)">
<path d="M6.875 15.6562C7.5481 15.6562 8.09375 16.2019 8.09375 16.875C8.09375 17.5481 7.5481 18.0938 6.875 18.0938C6.2019 18.0938 5.65625 17.5481 5.65625 16.875C5.65625 16.2019 6.2019 15.6562 6.875 15.6562Z" fill="#DCDCDC" stroke="#DCDCDC" stroke-width="0.0625"/>
<path d="M15 15.6562C15.6731 15.6562 16.2188 16.2019 16.2188 16.875C16.2188 17.5481 15.6731 18.0938 15 18.0938C14.3269 18.0938 13.7812 17.5481 13.7812 16.875C13.7812 16.2019 14.3269 15.6562 15 15.6562Z" fill="#DCDCDC" stroke="#DCDCDC" stroke-width="0.0625"/>
<path d="M1.25 2.5H3.125L5.99609 12.8344C6.06916 13.0976 6.22643 13.3296 6.44384 13.4949C6.66126 13.6603 6.92685 13.7499 7.2 13.75H14.9219C15.1952 13.7501 15.4609 13.6605 15.6785 13.4952C15.8961 13.3298 16.0535 13.0977 16.1266 12.8344L18.125 5.625H3.99297" stroke="#DCDCDC" stroke-linecap="round" stroke-linejoin="round"/>
</g>
<defs>
<clipPath id="clip0_3101_25829">
<rect width="20" height="20" fill="white"/>
</clipPath>
</defs>
</svg>
