<svg width="20" height="20" viewBox="0 0 20 20" fill="none" xmlns="http://www.w3.org/2000/svg">
<g clip-path="url(#clip0_2369_9884)">
<path d="M6.875 15.6719C7.53947 15.6719 8.07812 16.2105 8.07812 16.875C8.07812 17.5395 7.53947 18.0781 6.875 18.0781C6.21053 18.0781 5.67188 17.5395 5.67188 16.875C5.67188 16.2105 6.21053 15.6719 6.875 15.6719Z" fill="#D4D2FF" stroke="#B5AEFF" stroke-width="0.09375"/>
<path d="M15 15.6719C15.6645 15.6719 16.2031 16.2105 16.2031 16.875C16.2031 17.5395 15.6645 18.0781 15 18.0781C14.3355 18.0781 13.7969 17.5395 13.7969 16.875C13.7969 16.2105 14.3355 15.6719 15 15.6719Z" fill="#B5AEFF" stroke="#B5AEFF" stroke-width="0.09375"/>
<path d="M1.25 2.5H3.125L5.99609 12.8344C6.06916 13.0976 6.22643 13.3296 6.44384 13.4949C6.66126 13.6603 6.92685 13.7499 7.2 13.75H14.9219C15.1952 13.7501 15.4609 13.6605 15.6785 13.4952C15.8961 13.3298 16.0535 13.0977 16.1266 12.8344L18.125 5.625H3.99297" stroke="#B5AEFF" stroke-width="1.5" stroke-linecap="round" stroke-linejoin="round"/>
</g>
<defs>
<clipPath id="clip0_2369_9884">
<rect width="20" height="20" fill="white"/>
</clipPath>
</defs>
</svg>
