<svg width="46" height="30" viewBox="0 0 46 30" fill="none" xmlns="http://www.w3.org/2000/svg">
<path d="M12.25 15C12.25 15.1326 12.2039 15.2598 12.1219 15.3536C12.0398 15.4473 11.9285 15.5 11.8125 15.5H7.4375V20.5C7.4375 20.6326 7.39141 20.7598 7.30936 20.8536C7.22731 20.9473 7.11603 21 7 21C6.88397 21 6.77269 20.9473 6.69064 20.8536C6.60859 20.7598 6.5625 20.6326 6.5625 20.5V15.5H2.1875C2.07147 15.5 1.96019 15.4473 1.87814 15.3536C1.79609 15.2598 1.75 15.1326 1.75 15C1.75 14.8674 1.79609 14.7402 1.87814 14.6464C1.96019 14.5527 2.07147 14.5 2.1875 14.5H6.5625V9.5C6.5625 9.36739 6.60859 9.24021 6.69064 9.14645C6.77269 9.05268 6.88397 9 7 9C7.11603 9 7.22731 9.05268 7.30936 9.14645C7.39141 9.24021 7.4375 9.36739 7.4375 9.5V14.5H11.8125C11.9285 14.5 12.0398 14.5527 12.1219 14.6464C12.2039 14.7402 12.25 14.8674 12.25 15Z" fill="black"/>
<path d="M21.99 10.06H23.474L27.338 20H25.686L24.636 17.298H20.8L19.764 20H18.098L21.99 10.06ZM24.328 16.136L22.732 11.782L21.08 16.136H24.328ZM27.7042 16.346C27.7042 15.646 27.8442 15.0113 28.1242 14.442C28.4135 13.8633 28.8055 13.406 29.3002 13.07C29.7949 12.7247 30.3642 12.552 31.0082 12.552C31.5682 12.552 32.0722 12.6967 32.5202 12.986C32.9775 13.2753 33.3322 13.6347 33.5842 14.064V9.78H35.1242V18.264C35.1242 18.4413 35.1569 18.5673 35.2222 18.642C35.2875 18.7167 35.3949 18.7587 35.5442 18.768V20C35.2549 20.0467 35.0309 20.07 34.8722 20.07C34.5829 20.07 34.3355 19.986 34.1302 19.818C33.9342 19.65 33.8315 19.4493 33.8222 19.216L33.8082 18.67C33.5282 19.1367 33.1502 19.5007 32.6742 19.762C32.1982 20.014 31.7035 20.14 31.1902 20.14C30.6862 20.14 30.2195 20.042 29.7902 19.846C29.3702 19.65 29.0015 19.3747 28.6842 19.02C28.3762 18.6653 28.1335 18.2593 27.9562 17.802C27.7882 17.3447 27.7042 16.8593 27.7042 16.346ZM33.5842 17.368V15.45C33.4815 15.1513 33.3135 14.8853 33.0802 14.652C32.8562 14.4093 32.5995 14.218 32.3102 14.078C32.0302 13.938 31.7502 13.868 31.4702 13.868C31.1435 13.868 30.8449 13.938 30.5742 14.078C30.3129 14.218 30.0842 14.4047 29.8882 14.638C29.7015 14.8713 29.5569 15.1373 29.4542 15.436C29.3515 15.7347 29.3002 16.0473 29.3002 16.374C29.3002 16.71 29.3562 17.0273 29.4682 17.326C29.5802 17.6153 29.7389 17.8767 29.9442 18.11C30.1589 18.334 30.4015 18.5113 30.6722 18.642C30.9522 18.7633 31.2555 18.824 31.5822 18.824C31.7875 18.824 31.9929 18.7867 32.1982 18.712C32.4129 18.6373 32.6135 18.5347 32.8002 18.404C32.9962 18.2733 33.1595 18.1193 33.2902 17.942C33.4302 17.7647 33.5282 17.5733 33.5842 17.368ZM36.6182 16.346C36.6182 15.646 36.7583 15.0113 37.0383 14.442C37.3276 13.8633 37.7196 13.406 38.2142 13.07C38.7089 12.7247 39.2783 12.552 39.9223 12.552C40.4823 12.552 40.9863 12.6967 41.4343 12.986C41.8916 13.2753 42.2463 13.6347 42.4983 14.064V9.78H44.0383V18.264C44.0383 18.4413 44.0709 18.5673 44.1363 18.642C44.2016 18.7167 44.3089 18.7587 44.4583 18.768V20C44.1689 20.0467 43.9449 20.07 43.7863 20.07C43.4969 20.07 43.2496 19.986 43.0443 19.818C42.8483 19.65 42.7456 19.4493 42.7363 19.216L42.7223 18.67C42.4423 19.1367 42.0643 19.5007 41.5883 19.762C41.1123 20.014 40.6176 20.14 40.1043 20.14C39.6003 20.14 39.1336 20.042 38.7043 19.846C38.2843 19.65 37.9156 19.3747 37.5983 19.02C37.2903 18.6653 37.0476 18.2593 36.8703 17.802C36.7023 17.3447 36.6182 16.8593 36.6182 16.346ZM42.4983 17.368V15.45C42.3956 15.1513 42.2276 14.8853 41.9943 14.652C41.7703 14.4093 41.5136 14.218 41.2243 14.078C40.9443 13.938 40.6643 13.868 40.3843 13.868C40.0576 13.868 39.7589 13.938 39.4883 14.078C39.2269 14.218 38.9983 14.4047 38.8023 14.638C38.6156 14.8713 38.4709 15.1373 38.3683 15.436C38.2656 15.7347 38.2142 16.0473 38.2142 16.374C38.2142 16.71 38.2703 17.0273 38.3823 17.326C38.4943 17.6153 38.6529 17.8767 38.8583 18.11C39.0729 18.334 39.3156 18.5113 39.5863 18.642C39.8663 18.7633 40.1696 18.824 40.4963 18.824C40.7016 18.824 40.9069 18.7867 41.1123 18.712C41.3269 18.6373 41.5276 18.5347 41.7143 18.404C41.9103 18.2733 42.0736 18.1193 42.2043 17.942C42.3443 17.7647 42.4423 17.5733 42.4983 17.368Z" fill="black"/>
</svg>
