<svg width="20" height="21" viewBox="0 0 20 21" fill="none" xmlns="http://www.w3.org/2000/svg">
<path d="M10.0003 3.62535C8.51699 3.62535 7.06694 4.06521 5.83357 4.88933C4.6002 5.71344 3.63891 6.88478 3.07125 8.25522C2.50359 9.62567 2.35507 11.1337 2.64446 12.5885C2.93385 14.0434 3.64815 15.3798 4.69705 16.4286C5.74594 17.4775 7.08231 18.1918 8.53717 18.4812C9.99203 18.7706 11.5 18.6221 12.8705 18.0544C14.2409 17.4868 15.4123 16.5255 16.2364 15.2921C17.0605 14.0588 17.5003 12.6087 17.5003 11.1253C17.4981 9.13692 16.7072 7.23059 15.3011 5.82456C13.8951 4.41853 11.9888 3.62762 10.0003 3.62535ZM10.0003 17.3753C8.76421 17.3753 7.55584 17.0088 6.52803 16.322C5.50023 15.6353 4.69915 14.6592 4.2261 13.5171C3.75305 12.3751 3.62928 11.1184 3.87044 9.90603C4.1116 8.69365 4.70685 7.58001 5.58093 6.70593C6.45501 5.83185 7.56865 5.2366 8.78103 4.99544C9.99341 4.75428 11.2501 4.87805 12.3921 5.3511C13.5342 5.82415 14.5103 6.62523 15.197 7.65303C15.8838 8.68084 16.2503 9.88921 16.2503 11.1253C16.2485 12.7824 15.5894 14.371 14.4177 15.5427C13.246 16.7144 11.6574 17.3735 10.0003 17.3753ZM4.81753 3.44253L2.31754 5.94253C2.20026 6.05981 2.0412 6.12569 1.87535 6.12569C1.7095 6.12569 1.55044 6.05981 1.43316 5.94253C1.31588 5.82526 1.25 5.6662 1.25 5.50035C1.25 5.33449 1.31588 5.17544 1.43316 5.05816L3.93316 2.55816C4.05044 2.44088 4.2095 2.375 4.37535 2.375C4.5412 2.375 4.70026 2.44088 4.81753 2.55816C4.93481 2.67544 5.00069 2.83449 5.00069 3.00035C5.00069 3.1662 4.93481 3.32526 4.81753 3.44253ZM18.5675 5.94253C18.5095 6.00065 18.4406 6.04674 18.3647 6.0782C18.2888 6.10965 18.2075 6.12584 18.1253 6.12584C18.0432 6.12584 17.9619 6.10965 17.886 6.0782C17.8101 6.04674 17.7412 6.00065 17.6832 5.94253L15.1832 3.44253C15.0659 3.32526 15 3.1662 15 3.00035C15 2.83449 15.0659 2.67544 15.1832 2.55816C15.3004 2.44088 15.4595 2.375 15.6253 2.375C15.7912 2.375 15.9503 2.44088 16.0675 2.55816L18.5675 5.05816C18.6256 5.11621 18.6717 5.18514 18.7032 5.26101C18.7347 5.33688 18.7508 5.41821 18.7508 5.50035C18.7508 5.58248 18.7347 5.66381 18.7032 5.73968C18.6717 5.81556 18.6256 5.88449 18.5675 5.94253ZM14.3753 10.5003C14.5411 10.5003 14.7001 10.5662 14.8173 10.6834C14.9345 10.8006 15.0003 10.9596 15.0003 11.1253C15.0003 11.2911 14.9345 11.4501 14.8173 11.5673C14.7001 11.6845 14.5411 11.7503 14.3753 11.7503H10.0003C9.83459 11.7503 9.67562 11.6845 9.55841 11.5673C9.4412 11.4501 9.37535 11.2911 9.37535 11.1253V6.75035C9.37535 6.58459 9.4412 6.42562 9.55841 6.30841C9.67562 6.1912 9.83459 6.12535 10.0003 6.12535C10.1661 6.12535 10.3251 6.1912 10.4423 6.30841C10.5595 6.42562 10.6253 6.58459 10.6253 6.75035V10.5003H14.3753Z" fill="#989898"/>
</svg>
