<?xml version="1.0" encoding="UTF-8"?>
<svg id="Ebene_1" xmlns="http://www.w3.org/2000/svg" version="1.1" viewBox="0 0 2272.64869 600">
  <!-- Generator: Adobe Illustrator 29.0.1, SVG Export Plug-In . SVG Version: 2.1.0 Build 192)  -->
  <g isolation="isolate">
    <path d="M442.59424,189.24414c2.14502,2.6792.49707,5.69043-1.31641,6.8042-3.54541,3.17676-5.02832,8.08447-8.57275,11.26074-2.67969,2.14502.68115,2.32959.84717,4.22607-3.62793,2.22803-7.81299,3.5498-12.12207,3.44824-8.10303.22949-16.67969.50098-24.74072,1.20508-6.20605.06445-12.3291,1.07715-18.41064,2.56445-5.1748.92969-7.85449,3.07471-8.86279,7.94043-4.35107-.57471-7.87744-2.65576-12.57764-1.76807,3.38379,5.9165,2.14941,13.66846,10.54248,16.75879,1.97949.78271,2.26904,4.10205,2.47607,6.47314-.03662,10.51416,3.2041,20.26562,5.06348,30.61475,2.66504,14.10205,3.43359,28.36768,4.67627,42.59424,2.33789,21.29785,2.73828,42.28613,5.55029,63.54199,1.21973,8.49414,2.87256,16.47168,4.5249,24.45117,3.09814,13.58496,3.82471,27.37891,5.02588,41.12988.45557,5.2168.00439,10.99023.97559,16.6377,1.55127,12.28809.25732,24.82422,1.37598,37.62695.27148,8.57715-4.32373,16.14551-5.00098,24.80566.08301.94824.12402,1.42188-.30859,1.93945-4.10156,2.26758-8.88525,2.20801-12.94531,4.95215-1.33984,1.07227-3.31982.29004-5.2998-.49219-3.01074-1.64941-6.96924-3.21387-10.45459-4.82129-2.45361-.74219-4.86621-1.00781-8.02002,1.17773-6.30713,4.37402-16.4126-1.91016-16.64209-10.01367-.56152-11.89551-3.06104-24.09961-4.5708-35.91406-1.42676-10.86426-1.86377-21.33887-.4043-31.97754.59424-9.60742.71436-19.1748-2.95947-28.40918-1.87793-5.09277-2.80762-10.26855-2.78906-15.52441.24463-8.14453-2.31543-15.56543-2.97803-23.15332-1.49121-17.07031-3.45703-34.10059-4.94824-51.17188-2.08936-18.45117-4.17822-36.90283-2.43311-55.2124.80127-7.23779-.81006-14.74072-1.47314-22.32861-.02246-5.73145-1.50879-11.81348.36475-17.71094,1.17383-2.96924-.53857-6.16406-1.30273-9.44287-1.19727-2.76221-3.65088-3.50293-5.58838-3.81104-9.05127.31201-18.61816.19238-27.50342,2.40234-9.35986,2.25-18.92627,2.13086-28.36914,3.43311-2.80371.72266-5.73193.02295-8.30957-2.1416,1.25684-2.02051,2.63818-2.61865,4.01904-3.21729,2.76221-1.19678,4.10205-2.26953,2.82227-5.98047-.72266-2.80371,1.05029-4.3916,4.28662-5.62988,8.32812-3.1167,17.85352-3.47119,26.34766-4.69043,16.98779-2.43994,32.7793-7.6416,48.69482-11.4209,20.18311-4.15186,39.68457-10.63379,60.67383-11.03369,12.88574-.16992,26.12207-1.80371,38.84229-3.87012l5.21582-.45605c3.31934-.29004,4.90723,1.48291,6.57861,4.20361ZM322.73779,228.38232c-1.64795,3.01074-.73682,13.44238,2.62402,13.62695l2.88672.22559c-1.75439-3.66895-.56152-11.89648-4.12939-14.45166-.0415-.47363-.94873.08301-1.38135.59912Z" fill="#f06eaa"/>
    <path d="M507.60205,195.0332c8.84863,8.30566,13.55273,18.40576,15.53711,30.17822,2.771,20.78174,5.00781,46.38818,8.85107,68.50879,2.83105,15.99854,4.23926,32.12158,7.54443,48.07764,1.4873,6.08203,1.98438,11.77148,4.37793,17.29688,4.52051,13.46191,4.25684,26.86328,3.52051,40.30664-1.18848,19.21582.94238,38.14258,1.60938,56.71875.27148,8.57715,1.96582,17.0293-1.59863,25.46289-1.13184,3.44336.10645,6.67969,1.30371,9.44238.72168,2.80371,2.86719,5.4834-.71875,8.18652-1.33984,1.07227-.22559,2.88672.80566,3.75098,2.61914,2.63867,1.40332,5.13379.22949,8.10449q-3.25488,6.49414-9.27637,3.19824c-4.00098-2.03906-8.31006-2.1416-9.9585.87012-9.02344,17.0332-14.10156,2.66504-25.83154,5.12305-2.80371.72266-5.38232-1.44043-6.57861-4.20312-1.91992-5.56641-4.70557-10.10156-4.76904-16.30762-1.11865-12.80273-1.7627-25.64746-2.83984-37.97656-1.20117-13.75195-5.16455-26.30566-7.27295-39.5-5.66162-31.99805-6.54004-63.93359-11.21191-95.53906-2.39844-16.51367-2.4668-33.70898-4.34912-49.78955-2.64697-19.35938-3.37793-44.14209-4.60205-63.625q-.14697-7.1543,7.43994-7.81738c1.38086-.59766,2.32959-.68066,3.27783-.76367,1.13232-3.44336-1.48682-6.08154-.82861-9.48389,1.21533-2.49463,4.65918-1.36279,6.34912-3.89893.86523-1.03174,2.67969-2.14551,3.66895-1.75439,8.66016.67725,18.06104-1.09961,25.3208,5.43359ZM524.73291,347.39062l.95264,10.90723c.16553,1.89648,3.54932,7.8125,4.23047,10.14258l1.85986,10.34863c.30859-1.9375.43311-.51562,1.3999-5.85645.96729-5.33887-.4375-10.47266-.68604-13.31738-.24805-2.8457-2.25049-9.36035-3.01465-12.63867l-4.11084-19.70801c-.69971,2.92773-1.16992,13.95801-.63135,20.12207Z" fill="#f06eaa"/>
    <path d="M735.6626,169.37842c9.98145,4.8623,15.59277,14.40527,16.97754,24.79639,2.64746,19.35938,10.17676,83.68359-3.04492,69.0708-7.38379-7.95508-1.91504,5.42285-4.94434,9.03223-2.16406,2.57812-1.39941,5.85596-3.08984,8.39307-13.36426-10.77783-14.33984-27.41553-18.46875-41.86768-3.44824-12.12109-5.94727-24.32617-7.97266-36.57227-2.95508-17.42139-25.24707-26.46387-41.61328-16.91162,3.36035.18408,5.29883.49268,7.19629.32715,1.03027.86572,1.11328,1.81396.20703,2.37109-7.13184,5.87842-10.3457,12.84912-12.4043,22.10693-2.4082,10.72217-6.75391,21.13574-7.22363,32.16699-.61328,14.86523-5.57617,29.15527-6.66309,44.06152-1.15137,8.70215-2.30273,17.40381-2.46387,26.49658-.71484,19.17383,4.39062,50.26367,4.56055,63.14941-.22559,2.88672-.92578,5.81543-.20312,8.61719,2.55957,7.42285,2.27441,15.0918,2.46289,22.72168.02246,5.73145,6.64258,10.4082,7.57227,15.58301,2.62402,13.62695,6.1543,26.69727,14.34473,38.40527,6.00293,8.55371,13.53027,12.6748,23.83789,10.34082l19.31836-3.12012c3.31836-.29004,5.52441-2.39453,8.20312-4.53906,12.14062-8.70703,15.81055-10.45996,25.84668-21.37109,1.33984-1.07324,6.34863-3.89844,12.01562-10.12793,5.19434-6.1875,10.55273-10.47754,15.70508-17.13965,3.0293-3.60938,8.4707-6.9502,11.27441-7.67383,2.70215,3.58691-4.7373,11.40332-.69531,13.91797.08301.94824-.30859,1.9375-.2666,2.41211-2.90527,5.03125-8.47168,6.95117-10.51172,10.95215-2.82227,5.98047-3.04785,8.86621-6.03516,12.9502-2.59668,3.09375-5.70898,5.75488-8.78027,8.88965-1.29883,1.54688-2.51367,4.04199-4.20312,6.57812-9.00488,11.77637-11.91113,16.80762-20.98047,22.37891-8.16211,5.0127-15.76855,10.93359-23.33203,17.32812-7.60645,5.91992-16.88281,9.11914-25.60254,13.22559-8.28711,3.59082-11.97949-.38672-19.27637,3.59473-1.38086.59961-3.40234-.65723-4.86621-1.00879-2.45312-.74023-4.9082-1.48145-6.63867.58008-.3916.99121-1.77246,1.58887-2.24609,1.62988-9.2998-2.53223-15.58887-3.41602-24.41406-5.99023-6.8877-2.26465-19.12012-16.48633-22.58594-23.35059-7.92285-14.11914-14.17383-25.51953-17.00488-41.5166-1.55078-12.28809-.70898-19.05078-6.05273-31.00781-2.31152-4.57617-.91211-10.43262-3.73828-15.44141-2.70215-3.58496-3.11719-8.32812-2.06641-12.71973.9668-5.34082.51074-10.55762.05566-15.77246-.95801-21.89648-3.85254-44.09961-1.92285-65.76953.94434-11.07275-1.38965-21.38037.02832-32.49365,3.04004-30.8457,12.96582-59.42627,27.32617-86.48193.43262-.51562.86621-1.03125,1.77246-1.58838.51562.43262,1.46387.3501,1.97949.78271,3.60938,3.0293,5.93945,2.34766,7.50488-1.61084,3.64648-7.48633,8.88086-13.19922,15.10547-18.521,1.33984-1.07275,2.12207-3.05225,4.57617-2.31104,10.24805,2.44971,19.875-2.21338,29.23438-4.46436,21.91406-6.21484,42.28516-2.73877,62.20605,6.51123ZM598.35986,304.16895c-1.25781,2.02051.50098,16.67969.625,18.10156-1.56543,3.95898,8.23145,12.18164,5.54785,3.33789-2.04395-6.98828,2.51562-53.25586-3.64941-52.71729-.47461.04102-2.60645,30.32959-2.52344,31.27783Z" fill="#f06eaa"/>
    <path d="M970.78076,147.88525c.20703,2.37109-.01855,5.25732-1.70801,7.79395-4.90332,9.50684-10.71289,19.57031-16.60645,28.68604-5.85156,9.58936-10.71387,19.57031-15.61719,29.07715-1.21582,2.49561-2.38867,5.46436-4.0791,8.00146-2.03906,4.00098-5.54395,7.65137-6.11816,12.00195-.14355,3.83447-2.74023,6.92871-3.31543,11.2793-.32812,7.1958-6.11914,12.00098-10.48828,16.68359-6.49121,7.73486-6.38574,14.41406-1.76367,23.56689,6.41699,13.29541,13.7832,26.50879,20.71582,40.2373,1.79492,4.14355,4.53906,8.2041,5.42773,12.90527.92969,5.17383,5.0127,8.16113,7.28223,12.26465,10.00879,21.58301,22.30469,42.00977,35.50781,61.88086,7.20068,11.31543,15.34912,22.5498,20.30225,35.49609,1.11328,1.81348,1.75391,3.66797,1.91895,5.56543.97168,5.64941,2.85059,10.74023,6.15039,15.70801,1.62988,2.24707,4.20801,4.41016,3.11719,8.3291-6.80469-1.31738-12.49512-.82031-15.11035,7.53125-.34961,1.46289-1.9375-.30957-2.84473.24805-4.14453,1.79492-7.97852,1.65234-12.16455,2.97363-7.37988,3.03418-13.95801-1.16992-19.58887-5.45605-4.59863-3.4209-8.72363-6.88184-14.14648-8.79785-1.77246,1.58789.84668,4.22559-1.3584,6.33008-5.38184-1.44238-8.60059-5.45996-10.95215-10.51074-7.14062-16.09961-13.84766-32.71582-20.08105-49.37207-6.70605-16.61523-13.84668-32.71484-20.5127-48.85645-6.74805-17.08984-14.4043-33.62207-19.33887-51.8252-.16602-1.89746-1.71289-3.19531-2.86816-5.4834-4.01953,3.21777-3.25488,6.49609-2.92383,10.29004,2.74805,15.04883,5.53711,30.57324,7.85254,46.13867,3.14355,25.04883,8.14258,49.45898,9.34863,74.2002.45605,5.2168.91113,10.43164-2.50977,15.03125-1.25586,2.02051-.5752,4.35059-1.31641,6.80469-.61719,3.87598.27148,8.57617-6.36719,9.15625-4.26855.37305-1.83301,6.37109-3.91406,9.89746-5.50684-2.86328-9.875,1.81934-14.49316,3.65527-9.70898,3.71582-19.56543.27637-22.33301-9.51562-2.25-9.35938-4.06836-19.23535-5.37109-28.67871-3.41113-22.63672-7.25488-44.75781-11.09766-66.87793-3.12109-19.31836-5.76758-38.67773-7.98145-58.55273-1.94727-22.28711-5.31543-44.44873-7.30371-67.21045-2.08984-18.45166-4.69531-37.33691-3.46582-56.07812.14258-3.83594-1.13672-7.5459-1.46875-11.33984-.80566-3.75195-2.68359-8.84375-1.46777-11.33936,3.85352-5.11475,7.27441-9.71436,4.28223-16.61914-.51562-.43311,1.25684-2.02148,2.7207-1.67139,4.35059.57568,7.5459-1.13721,10.69922-3.32324,6.78223-4.41553,13.50293-4.04639,20.78223-2.77148,5.29785.49316,8.90723,3.52246,10.35352,9.12988,2.89062,11.21484,5.26562,21.99707,6.25977,33.37842.49707,5.68994.95312,10.90576,2.35742,16.03906,2.80762,10.26611,2.81152,21.25635,3.72266,31.68799,1.8418,15.60693,4.15625,31.17236,6.55469,47.68604,5.31738-4.76465,7.70703-10.22998,10.6123-15.26123,7.54199-12.12598,14.52539-25.15918,21.55078-37.71777,12.79492-23.09668,26.5791-45.80273,41.39551-67.64258,4.67676-6.62012,10.34473-12.84863,13.99121-20.33496,2.08105-3.52637,6.30762-4.37354,8.82129-8.41553,2.12207-3.05176,8.10254-.22998,8.94922,3.99658Z" fill="#f06eaa"/>
    <path d="M1064.40039,142.09668c.51562.43262,2.41211.26709,3.31934-.29004,19.62598-5.05908,40.05762-6.36572,59.68359-11.4248,5.1748-.92969,10.2666-2.80762,15.48242-3.26318,9.44238-1.30273,20.49707,4.89893,26.1084,14.44238-10.6582,3.79785-21.35742,7.12207-32.26367,8.07471-10.94824.47852-21.4209.91504-32.28711,2.34229-9.91602,1.34375-19.62598,5.05908-29.54199,6.40283-2.8457.24854-4.10254,2.26953-4.80273,5.19727-2.11816,14.0415,1.8877,27.07031,4.98535,40.65625.88867,4.70068.82812,9.48438,1.2832,14.7002.83398,20.47314,1.66602,40.94678,5.38477,61.64453,15.44141-3.73682,30.98828-.79492,45.95605-4.4917,7.46289-2.08447,12.30957,4.18066,18.84766,7.90967-3.50293,3.65088-6.18262,5.79639-9.93555,6.60156-4.7002.88916-8.88477,2.20996-13.46191,4.52051-10.57422,4.74658-21.91406,6.21387-33.72656,7.72461q-6.12305,1.0127-5.11133,7.13574c1.46875,11.33789,2.46289,22.71973,3.02344,34.61621.60352,12.37012-.1748,25.33984,1.8916,38.05957.84766,4.22559.3125,9.05078-.2627,13.40137-1.85156,11.62988-1.76367,23.56543.69434,35.29688,1.3623,4.65918,3.38379,5.91602,7.60938,5.06934,3.32031-.29004,6.51465-2.00195,10.39062-1.38477.99023.39062,2.45508.74023,2.66211,3.1123-4.80273,5.19629-14.74219.80957-19.81152,8.41895,3.95996,1.56543,6.68066-.10547,9.44336-1.30273,16.22363-5.7168,32.61328-9.53809,48.7959-15.72949,8.32812-3.11621,17.46191-2.48145,25.83203-5.12402,2.3291-.68066,4.7832.06152,6.80371,1.31738,3.09375,2.59766,6.14648,4.71973,9.19824,6.8418-2.51367,4.04199-7.89551,2.60059-11.00781,5.2627-.69922,2.92773,2.26953,4.10059,3.4248,6.38867,2.66113,3.1123,1.96191,6.04102-2.30664,6.41406-7.62793.18848-13.97656,4.08789-20.92383,6.60449-5.13281,1.40527-10.22559,3.28223-15.44141,3.73828-14.69922,1.28418-28.92578,2.52637-42.90332,6.61523-3.70996,1.2793-7.0293,1.56934-7.48145,7.34277-.14258,3.83398-2.94629,4.55762-6.51367,2.00293-4.04199-2.51465-7.2373-.80176-10.98926.00293-18.24512,4.46094-36.13965,7.45801-55.14941,8.64062-2.84473.24805-5.42383-1.91602-8.35059-2.61523-2.4541-.74121-3.09375-2.59668-3.25977-4.49414-.24805-2.84473,1.09082-3.91699,3.41992-4.59766,7.38086-3.03516,14.88477-4.64453,23.04785-9.65918-.95312-10.90625-2.37988-21.77148-2.89941-33.19336-.2207-35.33887-5.0166-68.36621-5.23633-103.70508-.61133-34.34863-2.68652-69.04785-4.7207-103.27197-1.0166-17.11279-3.93066-34.06006-5.37988-50.65625-.37305-4.26758-2.43555-5.99902-6.22949-5.66797-6.16406.53857-5.50586-2.86377-11.75293-3.27295-2.88672-.22607-5.33984-.96729-7.05273-4.16211,9.66797-4.18945,12.9873-4.479,22.30566-7.20459.22559-2.88623.49219-5.29883.28516-7.66943-.41406-4.74219-.27148-8.57764,5.97559-8.16699.47461-.0415,1.42285-.12451,1.38184-.59912,7.83105-8.80664,16.30664-4.76904,25.09082-2.66943,6.37109,1.83301,12.18555,2.75879,16.47656,8.11719ZM1041.76367,462.77344q7.50391-1.61035,6.09961-6.74512c-.76367-3.27637-.52051-11.42188-3.6543-14.49316-4.80273,5.19922-1.99414,15.46484-2.44531,21.23828Z" fill="#f06eaa"/>
    <path d="M1363.46582,108.80615c2.14551,2.67969.49707,5.69043-1.31641,6.80469-3.54492,3.17676-5.02734,8.08447-8.57227,11.26025-2.67969,2.14551.68164,2.32959.84668,4.22607-3.62793,2.22852-7.8125,3.5498-12.12207,3.44873-8.10156.22949-16.67871.50098-24.74121,1.20508-6.20605.06445-12.32812,1.07715-18.41113,2.56445-5.17285.92969-7.85352,3.07471-8.86133,7.94043-4.35059-.57471-7.87695-2.65625-12.57812-1.76807,3.38379,5.9165,2.15039,13.66846,10.54199,16.75879,1.98047.78223,2.27051,4.10156,2.47754,6.47266-.03711,10.51465,3.20312,20.26611,5.06348,30.61475,2.66504,14.10254,3.43359,28.36865,4.67578,42.59521,2.33789,21.29736,2.73828,42.28564,5.55078,63.5415,1.21875,8.49414,2.87109,16.47168,4.52539,24.45117,3.09668,13.58496,3.82422,27.37891,5.02539,41.12988.45508,5.2168.00391,10.99023.97559,16.6377,1.55078,12.28809.25684,24.82422,1.375,37.62695.27148,8.57715-4.32227,16.14551-5,24.80566.08301.94824.12402,1.42188-.30859,1.93945-4.10254,2.26758-8.88574,2.20801-12.94629,4.95215-1.33984,1.07227-3.31934.29004-5.29883-.49219-3.01172-1.64941-6.96973-3.21484-10.45508-4.82129-2.4541-.74219-4.86523-1.00879-8.01953,1.17773-6.30762,4.37402-16.41309-1.91016-16.64258-10.01367-.56152-11.89551-3.06055-24.09961-4.57031-35.91406-1.42773-10.86426-1.86328-21.33887-.4043-31.97754.59375-9.60742.71387-19.1748-2.95996-28.40918-1.87793-5.09277-2.80762-10.26855-2.78906-15.52441.24414-8.14453-2.31543-15.56543-2.97852-23.15332-1.49121-17.07031-3.45605-34.1001-4.94727-51.17139-2.08984-18.45166-4.17871-36.90332-2.43359-55.21289.80078-7.23779-.81055-14.74072-1.47266-22.32861-.02246-5.73145-1.50977-11.81348.36426-17.71094,1.17383-2.96924-.53906-6.16406-1.30273-9.44287-1.19629-2.76221-3.65039-3.50293-5.58887-3.81152-9.05078.3125-18.61719.19287-27.50293,2.40283-9.35938,2.25-18.92676,2.13086-28.36914,3.43311-2.80371.72217-5.73145.02295-8.30957-2.1416,1.25684-2.02051,2.63867-2.61914,4.01855-3.21729,2.7627-1.19678,4.10254-2.27002,2.82324-5.98047-.72363-2.80371,1.0498-4.3916,4.28613-5.62988,8.32812-3.1167,17.85352-3.47119,26.34766-4.69092,16.98828-2.43945,32.7793-7.6416,48.69434-11.42041,20.18262-4.15186,39.68555-10.63379,60.67383-11.03369,12.88672-.16992,26.12207-1.80371,38.84277-3.87061l5.2168-.45557c3.31836-.29004,4.90625,1.48291,6.57715,4.20312ZM1243.61035,147.94434c-1.64844,3.01123-.7373,13.44287,2.62402,13.62744l2.88574.22559c-1.75391-3.66943-.56055-11.89648-4.12891-14.45166-.04102-.47363-.94824.08252-1.38086.59863Z" fill="#f06eaa"/>
    <path d="M1473.58203,94.8877c10.67969,1.93408,18.76367,6.96143,23.07715,18.05225l10.89648,26.2832c3.50879,7.33887,1.28418,14.69971.95801,21.89648-.18457,3.35986-4.92676,3.77441-6.5332,7.25928-1.48242,4.90771-4.42871,9.46533-6.38574,14.41455-2.92871-.69971-2.74512-4.06152-4.76465-5.31738-3.23633,1.23828-.96875,5.33984-3.68848,7.01123-.43262.51514-.90723.55664-1.46387-.3501-8.45703-9.29541-13.67773-19.82861-12.4248-32.83936.84277-6.76318-.64355-12.84473-3.12012-19.31738-3.1582-8.80273-16.44043-18.63281-24.68652-14.56738-4.61621,1.83691-9.15137,4.62207-13.72754,6.93262-5.00977,2.82715-7.39941,8.2915-9.35645,13.24072-1.95605,4.94873-3.10645,13.65039-5.58008,18.1665-4.28516,5.62988-3.08398,19.38184,2.97852,23.15234,15.26172,10.61182,26.1123,25.43213,38.21973,38.23145,9.5293,10.63428,20.74902,18.73291,31.96777,26.83105,9.23926,7.31689,18.08789,15.62158,25.59668,25,2.70215,3.58643,6.39453,7.56445,10.00391,10.59375,12.33398,9.91211,13.18359,25.12793,18.69434,38.97949,3.71582,9.70996,3.67773,20.22656,5.06348,30.61621.41406,4.74121.39551,10-4.57227,13.2998-2.71973,1.6709-2.03906,4.00098-2.30566,6.41406-1.29492,12.53613-5.5166,24.37207-11.24414,35.38379-2.47363,4.5166-5.93457,8.64062-11.10938,9.57227-2.3291.68066-3.62793,2.22656-4.92578,3.77441-4.20508,6.57812-10.98535,10.99316-17.33398,14.8916-1.81445,1.11426-3.58594,2.7041-5.56641,1.91992-5.89746-1.87305-10.43164.91113-14.9668,3.69727-13.52148,9.30371-37.76953,5.20996-59.23633-5.33691-2.02148-1.25879-32.31934-25.36816-33.3916-26.70898-11.1582-12.88184,16.16895,10.05469,5.40039-3.81641-2.18652-3.1543-5.05469-8.6377-4.95215-12.94531-.49707-5.69043-5.48828-8.12207-8.23242-12.18262-1.11328-1.81348-3.56738-2.55469-4.29102-5.35938,1.77344-1.58691,6.30762-4.37207,9.40234-1.77637,4.16504,3.93652,4.90723,1.4834,7.87793,2.65625,3.00879,1.64941,3.56738,2.55664,7.6084,5.06934,5.58887,3.8125,6.91016,7.99707,10.56055,11.50098,5.32227,6.22461,10.66211,7.19043,18.06445,9.88867,17.17773,5.18945,35.0166,17.96582,48.3916,1.50684,8.18066-10.27051,9.20801-20.39355,8.17285-32.24805-1.55176-12.28809-4.91699-23.46094-8.75586-34.59375-.72266-2.80371-2.35156-5.05078-3.94043-6.82324-20.21484-23.55762-36.77832-43.61182-61.28027-61.53955-12.68164-8.44824-28.3584-23.80322-33.91016-38.12939-2.55859-7.42236-7.87988-13.64697-9.49219-21.15088-.84668-4.22607-1.69336-8.45215-.60254-12.37061,2.63379-13.60889,3.28711-28,7.38574-41.2583,5.49707-19.11523,17.14062-33.51172,32.31055-45.82568,4.45215-3.73389,9.58594-5.13721,15.83301-4.72803,8.65918.67725,16.43066-3.34619,24.88477-5.04004,9.40039-1.77734,18.8418-3.0791,28.49219-2.01123ZM1381.59863,392.95312c-6.86523,3.46582-9.98145-4.86328-12.25-8.96387,7.15332-.14746,8.59863,5.45996,12.25,8.96387ZM1437.67188,269.08154c1.38086-.6001-4.70605-10.10254-8.35645-13.60547-5.32129-6.22412-10.70312-7.66602-11.94141-10.90283-7.01074-3.6875-12.7666-9.396-20.51855-10.63086,9.77734,13.48096,28.13281,26.69043,40.81641,35.13916Z" fill="#f06eaa"/>
  </g>
  <metadata>
    <sfw xmlns="http://ns.adobe.com/SaveForWeb/1.0/">
      <slices/>
      <sliceSourceBounds x="223.11" y="63.02" width="1304.36" height="442.47" bottomLeftOrigin="true"/>
      <optimizationSettings>
        <targetSettings fileFormat="PNG24Format" targetSettingsID="0">
          <PNG24Format filtered="false" interlaced="false" matteColor="#FFFFFF" noMatteColor="true" transparency="true"/>
        </targetSettings>
      </optimizationSettings>
    </sfw>
  </metadata>
</svg>