<svg width="30" height="30" viewBox="0 0 30 30" fill="none" xmlns="http://www.w3.org/2000/svg">
<rect x="0.5" y="0.5" width="29" height="29" rx="14.5" stroke="#6D4DFF"/>
<path d="M21 15C21 15.1326 20.9473 15.2598 20.8536 15.3536C20.7598 15.4473 20.6326 15.5 20.5 15.5H15.5V20.5C15.5 20.6326 15.4473 20.7598 15.3536 20.8536C15.2598 20.9473 15.1326 21 15 21C14.8674 21 14.7402 20.9473 14.6464 20.8536C14.5527 20.7598 14.5 20.6326 14.5 20.5V15.5H9.5C9.36739 15.5 9.24021 15.4473 9.14645 15.3536C9.05268 15.2598 9 15.1326 9 15C9 14.8674 9.05268 14.7402 9.14645 14.6464C9.24021 14.5527 9.36739 14.5 9.5 14.5H14.5V9.5C14.5 9.36739 14.5527 9.24021 14.6464 9.14645C14.7402 9.05268 14.8674 9 15 9C15.1326 9 15.2598 9.05268 15.3536 9.14645C15.4473 9.24021 15.5 9.36739 15.5 9.5V14.5H20.5C20.6326 14.5 20.7598 14.5527 20.8536 14.6464C20.9473 14.7402 21 14.8674 21 15Z" fill="#6D4DFF"/>
</svg>
