<svg width="49" height="48" viewBox="0 0 49 48" fill="none" xmlns="http://www.w3.org/2000/svg">
<g clip-path="url(#clip0_2720_25480)">
<rect x="0.5" width="48" height="48" rx="9" fill="#F7F7F7"/>
<path d="M23.2899 14.225C22.9961 13.9305 22.6327 13.7149 22.2333 13.5982C21.834 13.4814 21.4117 13.4672 21.0055 13.5569C20.5993 13.6466 20.2222 13.8374 19.9092 14.1115C19.5963 14.3856 19.3575 14.7341 19.2149 15.125L12.6524 33.1763C12.5168 33.5495 12.4728 33.9499 12.5243 34.3437C12.5758 34.7375 12.7212 35.1132 12.9483 35.439C13.1754 35.7649 13.4774 36.0313 13.8291 36.216C14.1807 36.4006 14.5715 36.498 14.9687 36.5C15.2604 36.4994 15.5498 36.4478 15.8237 36.3475L33.8749 29.785C34.2662 29.643 34.6153 29.4046 34.8899 29.0919C35.1645 28.7792 35.3558 28.4022 35.4461 27.9959C35.5363 27.5896 35.5225 27.1671 35.4061 26.7676C35.2897 26.368 35.0743 26.0042 34.7799 25.71L23.2899 14.225ZM22.0237 30.9013L18.0987 26.9762L19.3674 23.4875L25.5124 29.6325L22.0237 30.9013ZM16.9712 30.0875L18.9124 32.0325L15.8562 33.1437L16.9712 30.0875ZM28.6249 28.5L20.4999 20.375L21.7499 16.9275L32.0712 27.25L28.6249 28.5ZM24.9999 13V10C24.9999 9.60218 25.158 9.22064 25.4393 8.93934C25.7206 8.65804 26.1021 8.5 26.4999 8.5C26.8978 8.5 27.2793 8.65804 27.5606 8.93934C27.8419 9.22064 27.9999 9.60218 27.9999 10V13C27.9999 13.3978 27.8419 13.7794 27.5606 14.0607C27.2793 14.342 26.8978 14.5 26.4999 14.5C26.1021 14.5 25.7206 14.342 25.4393 14.0607C25.158 13.7794 24.9999 13.3978 24.9999 13ZM39.5599 23.4388C39.8417 23.7205 40 24.1027 40 24.5012C40 24.8998 39.8417 25.282 39.5599 25.5637C39.2781 25.8455 38.896 26.0039 38.4974 26.0039C38.0989 26.0039 37.7167 25.8455 37.4349 25.5637L35.4349 23.5638C35.1531 23.282 34.9948 22.8998 34.9948 22.5013C34.9948 22.1027 35.1531 21.7205 35.4349 21.4388C35.7167 21.157 36.0989 20.9986 36.4974 20.9986C36.896 20.9986 37.2781 21.157 37.5599 21.4388L39.5599 23.4388ZM39.4737 18.4225L36.4737 19.4225C36.0963 19.5483 35.6843 19.519 35.3284 19.3411C34.9726 19.1632 34.702 18.8512 34.5762 18.4738C34.4504 18.0963 34.4797 17.6844 34.6576 17.3285C34.8355 16.9727 35.1475 16.7021 35.5249 16.5763L38.5249 15.5763C38.9024 15.4504 39.3143 15.4797 39.6702 15.6576C40.026 15.8356 40.2966 16.1476 40.4224 16.525C40.5483 16.9024 40.519 17.3144 40.341 17.6702C40.1631 18.0261 39.8511 18.2967 39.4737 18.4225ZM28.5749 16.2413C28.9787 13.9338 30.6737 12.5 32.9999 12.5C33.8062 12.5 34.0862 12.1888 34.2499 11.885C34.3956 11.605 34.4808 11.2975 34.4999 10.9825V11C34.4999 10.6022 34.658 10.2206 34.9393 9.93934C35.2206 9.65804 35.6021 9.5 35.9999 9.5C36.3978 9.5 36.7793 9.65804 37.0606 9.93934C37.3419 10.2206 37.4999 10.6022 37.4999 11C37.4999 12.8088 36.3012 15.5 32.9999 15.5C32.3824 15.5 31.7237 15.6487 31.5299 16.7575C31.4694 17.1052 31.2881 17.4204 31.0181 17.6476C30.7481 17.8749 30.4066 17.9997 30.0537 18C29.9665 17.9999 29.8796 17.9923 29.7937 17.9775C29.4018 17.9089 29.0533 17.6874 28.8247 17.3618C28.5962 17.0362 28.5063 16.6331 28.5749 16.2413Z" fill="black"/>
</g>
<defs>
<clipPath id="clip0_2720_25480">
<rect x="0.5" width="48" height="48" rx="9" fill="white"/>
</clipPath>
</defs>
</svg>
